<svg width="110" height="73" xmlns="http://www.w3.org/2000/svg">
 <!-- Created with Method Draw - http://github.com/duopixel/Method-Draw/ -->
 <defs>
  <linearGradient y2="0.000007" x2="0.500002" y1="1.000002" x1="0.500002" id="svg_4">
   <stop stop-color="#54758B" offset="0"/>
   <stop stop-color="#57778E" offset="0.3567"/>
   <stop stop-color="#607F96" offset="0.6431"/>
   <stop stop-color="#6F8EA5" offset="0.9043"/>
   <stop stop-color="#7797AF" offset="1"/>
  </linearGradient>
 </defs>
 <g>
  <title>Layer 1</title>
  <g id="svg_11">
   <polygon id="svg_6" points="105.59494018554688,70.879638671875 37.05284118652344,70.879638671875 1.40496826171875,30.251083374023438 32.54566955566406,2.120391845703125 105.59494018554688,2.120391845703125 " fill="url(#svg_4)"/>
   <path id="svg_7" d="m43.625168,19.863686l12.190308,-2.915222l0,9.45668l8.959839,0l0,8.105652l-8.959839,0l0,12.22963c0,2.301125 0.384323,3.917053 1.150909,4.852699s2.024979,1.404289 3.775192,1.404289c1.613373,0 2.873672,-0.117981 3.791412,-0.355522l0.082077,8.31897c-1.965088,0.662567 -4.682129,0.992256 -8.156754,0.992256c-3.760483,0 -6.845428,-0.985794 -9.236511,-2.966957c-2.394699,-1.97789 -3.596634,-5.468399 -3.596634,-10.469833l0,-14.005531l-5.326736,0l0,-8.105652l5.326736,0l0,-6.541458z" stroke-miterlimit="10" stroke-width="3" stroke="#54758B" fill="#FFFFFF"/>
   <path id="svg_8" d="m81.8862,61.172562l-12.51265,0l0,-26.663422l-5.164688,0l0,-8.105652l5.164688,0l0,-1.278198c0,-2.916817 0.659195,-5.605812 1.977722,-8.070175c1.320145,-2.465958 3.263351,-4.296787 5.832855,-5.492626c2.567719,-1.197433 5.348511,-1.796944 8.333359,-1.796944c2.156113,0 4.334152,0.235943 6.539474,0.709431l-0.404236,8.461174c-1.20929,-0.329689 -2.558548,-0.497726 -4.033737,-0.497726c-1.859299,0 -3.290802,0.55265 -4.297806,1.654747c-1.010635,1.100426 -1.515106,2.611366 -1.515106,4.531143l0,1.777565l7.994537,0l0,8.105659l-7.914413,0l0,26.665024z" stroke-miterlimit="10" stroke-width="3" stroke="#54758B" fill="#FFFFFF"/>
   <path id="svg_9" d="m43.625168,19.863686l12.190308,-2.915222l0,9.45668l8.959839,0l0,8.105652l-8.959839,0l0,12.22963c0,2.301125 0.384323,3.917053 1.150909,4.852699s2.024979,1.404289 3.775192,1.404289c1.613373,0 2.873672,-0.117981 3.791412,-0.355522l0.082077,8.31897c-1.965088,0.662567 -4.682129,0.992256 -8.156754,0.992256c-3.760483,0 -6.845428,-0.985794 -9.236511,-2.966957c-2.394699,-1.97789 -3.596634,-5.468399 -3.596634,-10.469833l0,-14.005531l-5.326736,0l0,-8.105652l5.326736,0l0,-6.541458z" fill="#FFFFFF"/>
   <path id="svg_10" d="m81.8862,61.172562l-12.51265,0l0,-26.663422l-5.164688,0l0,-8.105652l5.164688,0l0,-1.278198c0,-2.916817 0.659195,-5.605812 1.977722,-8.070175c1.320145,-2.465958 3.263351,-4.296787 5.832855,-5.492626c2.567719,-1.197433 5.348511,-1.796944 8.333359,-1.796944c2.156113,0 4.334152,0.235943 6.539474,0.709431l-0.404236,8.461174c-1.20929,-0.329689 -2.558548,-0.497726 -4.033737,-0.497726c-1.859299,0 -3.290802,0.55265 -4.297806,1.654747c-1.010635,1.100426 -1.515106,2.611366 -1.515106,4.531143l0,1.777565l7.994537,0l0,8.105659l-7.914413,0l0,26.665024z" fill="#FFFFFF"/>
  </g>
 </g>
</svg>
